<svg xmlns="http://www.w3.org/2000/svg" width="46" height="46" fill="none"><g clip-path="url(#a)"><path fill="#004DE6" d="m24.7 33-.3.3v-12c0-.4-.3-.7-.7-.7-.4 0-.7.3-.7.7v12l-.4-.3c-.3-.3-.8-.3-1.1 0-.1.1-.2.3-.2.5s.1.4.2.5l1.5 1.4c.1.2.4.3.6.3h.1c.2 0 .4-.1.5-.2l1.6-1.6c.3-.3.3-.8 0-1.1-.4-.1-.8-.1-1.1.2ZM21.9 26.7c0-.2-.1-.4-.2-.5-.3-.3-.8-.3-1.1 0l-.3.3v-4.6l-.1-.4-3.3-4.3c-.1-.2-.3-.3-.5-.3s-.4 0-.6.1c-.3.3-.4.7-.1 1.1l3.1 4v4.2l-.3-.3c-.3-.3-.8-.3-1.1 0-.3.3-.3.8 0 1.1l1.5 1.6c.1.1.3.2.5.2h.1c.3 0 .5-.1.6-.3l1.5-1.4c.2-.1.3-.3.3-.5Zm9.7-8.5c.3-.3.2-.8-.1-1.1-.2-.1-.4-.2-.6-.1-.2 0-.4.1-.5.3l-3.3 4.3-.1.4v4.6l-.3-.3c-.3-.3-.8-.3-1.1 0-.1.1-.2.3-.2.5s.1.4.2.5l1.5 1.4c.1.2.4.3.6.3h.1c.2 0 .4-.1.5-.2l1.5-1.6c.3-.3.3-.8 0-1.1-.3-.3-.8-.3-1.1 0l-.3.3v-4.2l3.2-4Z"/><path fill="#004DE6" d="M39.8 39.6V25.9c-.2 0-.3.1-.5.1h-1.9v13.7h-8.2v.1c0 .8-.7 1.4-1.5 1.4h-9.1c-.8 0-1.5-.6-1.5-1.4v-.1H8.8V26H6.9c-.2 0-.3 0-.5-.1v13.7H2.7V41c0 1.2 1.1 2.2 2.5 2.2H41c1.4 0 2.5-1 2.5-2.2v-1.4h-3.7Z"/><path fill="#fff" d="M20.45 0h5.3c.7 0 1.3.6 1.3 1.3v5.3c0 .7-.6 1.3-1.3 1.3h-5.3c-.7 0-1.3-.6-1.3-1.3V1.4c0-.8.6-1.4 1.3-1.4Z"/><path fill="#000" d="M20.15 2.4v.1h.1c.3.1.3.2.4.4l1.4 3.1c.1.2.2.2.4 0l.7-1.4.7 1.4c.1.2.2.2.4 0l1.3-3c.1-.3.3-.4.6-.4v-.2h-1.2v.1h.1c.2 0 .5 0 .3.3l-1.1 2.6-.7-1.4.6-1.1c0-.2 0-.3.3-.3h.1v-.2h-1v.1h.1c.3 0 .2.1.2.3l-.4.9-.4-.8c-.1-.2-.2-.3 0-.3 0 0 .1 0 .1-.1v-.1h-1.1v.1h.1c.2 0 .2 0 .4.4l.6 1.3-.6 1.2-1.2-2.6c-.3-.2-.1-.2.1-.2v-.2h-1.3Z"/><path fill="#CD201F" d="M8.747 5.4h5.3c.7 0 1.3.6 1.3 1.3V12c0 .7-.6 1.3-1.3 1.3h-5.3c-.7 0-1.3-.6-1.3-1.3V6.8c0-.8.6-1.4 1.3-1.4Z"/><path fill="#134FE6" d="M32.053 5.4h5.3c.8 0 1.4.6 1.4 1.3V12c0 .7-.6 1.3-1.3 1.3h-5.3c-.7 0-1.3-.6-1.3-1.3V6.7c-.1-.7.5-1.3 1.2-1.3Z"/><path fill="#fff" d="m32.053 8.6-.1.1.1.1.1.1h.3l.1.2V10.8h.1l.4.2.7-.3s.6.2.7.2c.1 0 .5-.1.5-.1v-.1l-.5-.3-.1.1h-.1v-.8h.1l-.1-.4.1-.3v-.499l-.23-.105-.402.019v.16l.132.096.2.13V9l-.2 1.2-.7.2s-.3 0-.3-.1-.1-.6-.1-.6l.1-.3-.05-.1.05-.5-.1-.2-.3-.1-.4.1Z"/><path fill="#fff" d="M37.252 10.6s-.4 0-.5-.2c-.1-.2-.1-.66-.1-.66V9.3l.1-.1h-.1l.1-.3-.1-.2v-.4l-.1-.1.1-.2-.1-.1-.2-.2h-.5l-.1.1v.1c.1 0 .5.1.5.1v.5l.082.2.018.2s-.3-.2-.6-.2c-.2 0-.9 0-.9 1.3 0 1 .9 1.1.9 1.1l.6-.2.3.2V11l.3.1.4-.1-.1-.4Zm-.9-.8-.1.3v.1h-.1l-.1.2-.356.3-.444-.34V9.7h.1l-.1-.1v-.2s.3-.4.4-.4l.4.1.1.1h.1l.1.2-.1.1.1.3Z"/><path fill="#03A9F4" d="M4.9 18.4h5.3c.7 0 1.3.6 1.3 1.3V25c0 .7-.6 1.3-1.3 1.3H4.9c-.7 0-1.3-.6-1.3-1.3v-5.3c0-.7.6-1.3 1.3-1.3Z"/><path fill="#fff" d="M10.2 20.8c-.2.1-.4.1-.6.2.2-.1.4-.3.5-.6-.2.1-.4.2-.7.3-.4-.4-1.1-.5-1.5-.1-.2.2-.3.5-.3.8v.2c-.9 0-1.7-.5-2.2-1.1-.4.5-.2 1.1.2 1.4-.2 0-.3-.1-.5-.1 0 .5.4 1 .9 1.1h-.5c.1.4.6.7 1 .8-.4.3-.9.5-1.3.5h-.3c.5.3 1.1.5 1.7.5 2 0 3.1-1.7 3.1-3.1v-.1c.2-.3.4-.5.5-.7Z"/><path fill="#FF4500" d="M41.1 26.4h-5.3c-.7 0-1.3-.6-1.3-1.3v-5.3c0-.7.6-1.3 1.3-1.3h5.3c.7 0 1.3.6 1.3 1.3v5.3c0 .7-.6 1.3-1.3 1.3Z"/><path fill="#fff" d="M41.2 22.5v.2c0 .1 0 .1-.1.2l-.1.1-.1.1v.1c0 .9-1.1 1.7-2.5 1.7s-2.4-.7-2.4-1.7v-.1c-.2-.1-.3-.2-.3-.4s0-.4.1-.5c.1-.1.3-.2.4-.3.2 0 .4 0 .5.2.1-.1.2-.2.4-.2.1-.1.3-.1.4-.2.1 0 .3-.1.4-.1h.4l.3-1.5h.1l1 .2c.1-.2.3-.3.5-.2.2.1.3.3.3.5s-.2.3-.4.3-.4-.2-.4-.4l-.9-.2-.3 1.3h.4c.3 0 .6.1.8.3.1.1.3.1.4.2.1-.1.2-.1.3-.2h.3c.1 0 .2.1.3.2.2.1.2.3.2.4Zm-4.2.6c0 .1.1.1.1.1l.1.1h.2c.2 0 .3-.1.4-.3.1-.2 0-.3-.1-.5-.1-.1-.3-.2-.5-.1s-.3.2-.3.4c.1.1.1.2.1.3Zm2.4 1c.1-.1.1-.1 0 0v-.2h-.2c-.1 0-.1.1-.2.1s-.1.1-.2.1H38c-.1 0-.1-.1-.2-.1s-.1-.1-.2-.1h-.2v.2c.1.1.2.1.2.1.1 0 .2.1.3.1.1 0 .2 0 .3.1h.6c.2 0 .4-.1.5-.2l.1-.1Zm0-.8h.2c.1 0 .1-.1.1-.1l.1-.1v-.2c0-.2-.1-.3-.3-.4-.2-.1-.3 0-.5.1-.1.1-.2.3-.1.5.1.1.3.2.5.2Z"/><path fill="#CD201F" d="M12.394 9.293c-.55-.28-1.077-.536-1.616-.803v1.602c.567-.293 1.164-.56 1.618-.8h-.002Z"/><path fill="#E8E0E0" d="M12.394 9.293c-.55-.28-1.616-.803-1.616-.803l1.42.905s-.258.137.196-.102Z"/><path fill="#fff" d="M10.883 11.345c-1.143-.02-1.533-.038-1.773-.085a.794.794 0 0 1-.407-.2.8.8 0 0 1-.193-.353c-.042-.134-.059-.246-.082-.518a11.674 11.674 0 0 1 0-1.678c.036-.31.054-.678.298-.893a.817.817 0 0 1 .4-.192c.235-.042 1.237-.076 2.274-.076 1.034 0 2.038.034 2.273.076.184.032.35.125.468.264.223.332.227.745.25 1.069.009.154.009 1.029 0 1.183-.036.51-.064.691-.144.879a.645.645 0 0 1-.165.25.804.804 0 0 1-.418.203c-.99.07-1.829.086-2.782.071Zm1.514-2.053c-.55-.279-1.077-.538-1.616-.806v1.603c.567-.292 1.164-.56 1.618-.8l-.002.003Z"/></g><defs><clipPath id="a"><path fill="#fff" d="M0 0h46v46H0z"/></clipPath></defs></svg>